<svg
      xmlns="http://www.w3.org/2000/svg"
      viewBox="0 0 98 56"
      id="logo-gmx-56"
    >
      <defs>
        <path
          id="bba"
          d="M4 0h360a4 4 0 014 4v627a4 4 0 01-4 4H4a4 4 0 01-4-4V4a4 4 0 014-4z"
        />
        <mask id="bbb" fill="#fff">
          <use
            fill-rule="evenodd"
            xmlns:xlink="http://www.w3.org/1999/xlink"
            xlink:href="#bba"
          />
        </mask>
      </defs>
      <g fill="none" fill-rule="evenodd">
        <path d="M-334-112h767v860h-767z" fill="#fff" />
        <g transform="translate(-135 -24)">
          <use
            fill="#f1f4f9"
            xmlns:xlink="http://www.w3.org/1999/xlink"
            xlink:href="#bba"
          />
          <use
            fill="#fff"
            xmlns:xlink="http://www.w3.org/1999/xlink"
            xlink:href="#bba"
          />
          <g mask="url(#bbb)">
            <path d="M135 24h98v56h-98z" />
            <g fill="#1c449b">
              <path d="M151.287 50.085v5.63h6.291c-.314 3.179-2.87 4.788-6.212 4.788-5.072 0-7.824-4.35-7.824-8.627 0-4.204 2.633-8.699 7.706-8.699 3.106 0 5.347 1.755 6.41 4.387l7.313-2.853c-2.556-5.153-7.274-7.71-13.37-7.71-9.554 0-16.08 5.884-16.08 14.838 0 8.664 6.486 14.549 15.806 14.549 4.954 0 9.318-1.646 12.228-5.41 2.635-3.436 2.95-6.873 3.028-10.893zM165.475 65.549h7.723l2.494-15.978h.08l6.85 15.978h3.09l7.168-15.978h.08l2.178 15.978h7.761l-4.514-27.76h-7.723l-6.416 14.838-6.058-14.838h-7.644zM221.803 50.843l8.413-13.054h-8.592l-4.478 6.639-4.82-6.639H202.9l9.936 13.028-9.936 14.732h9.425l5.38-8.348 6.366 8.348h8.409z" />
            </g>
          </g>
        </g>
      </g>
    </svg>